<svg width="20" height="22" viewBox="0 0 20 22" fill="none" xmlns="http://www.w3.org/2000/svg">
<path fill-rule="evenodd" clip-rule="evenodd" d="M7.55802 20.4562C3.88602 20.4562 0.749023 19.9012 0.749023 17.6772C0.749023 15.4532 3.86602 13.4492 7.55802 13.4492C11.23 13.4492 14.366 15.4342 14.366 17.6572C14.366 19.8802 11.25 20.4562 7.55802 20.4562Z" stroke="#464962" stroke-width="1.5" stroke-linecap="round" stroke-linejoin="round"/>
<path fill-rule="evenodd" clip-rule="evenodd" d="M7.55837 10.2776C9.96837 10.2776 11.9224 8.32356 11.9224 5.91356C11.9224 3.50356 9.96837 1.54956 7.55837 1.54956C5.14837 1.54956 3.19437 3.50356 3.19437 5.91356C3.18537 8.31556 5.12637 10.2696 7.52737 10.2776H7.55837Z" stroke="#464962" stroke-width="1.5" stroke-linecap="round" stroke-linejoin="round"/>
<path d="M14.8003 9.07888C16.2033 8.70388 17.2373 7.42488 17.2373 5.90288C17.2383 4.31488 16.1113 2.98888 14.6133 2.68188" stroke="#464962" stroke-width="1.5" stroke-linecap="round" stroke-linejoin="round"/>
<path d="M15.46 12.6536C17.448 12.6536 19.146 14.0016 19.146 15.2046C19.146 15.9136 18.561 16.6416 17.671 16.8506" stroke="#464962" stroke-width="1.5" stroke-linecap="round" stroke-linejoin="round"/>
</svg>
