<svg width="26" height="24" viewBox="0 0 26 24" fill="none" xmlns="http://www.w3.org/2000/svg">
<path fill-rule="evenodd" clip-rule="evenodd" d="M20.7178 9.28411C19.9252 7.32701 18.3014 5.77399 16.2704 5.01251C16.0334 5.26583 15.8417 5.55628 15.7055 5.87156C17.6282 6.521 19.1474 7.96831 19.8389 9.78633C20.1629 9.664 20.4588 9.49309 20.7178 9.28411ZM13.705 5.50535C13.6122 5.5018 13.5189 5.5 13.4252 5.5C9.63709 5.5 6.60486 8.431 6.60486 12C6.60486 15.569 9.63709 18.5 13.4252 18.5C17.2132 18.5 20.2455 15.569 20.2455 12C20.2455 11.9196 20.2439 11.8396 20.2409 11.7599C20.5821 11.6538 20.9087 11.5145 21.2162 11.3457C21.2356 11.5612 21.2455 11.7794 21.2455 12C21.2455 16.163 17.7229 19.5 13.4252 19.5C9.12745 19.5 5.60486 16.163 5.60486 12C5.60486 7.83702 9.12745 4.5 13.4252 4.5C13.6673 4.5 13.907 4.51059 14.1437 4.53133C13.9636 4.83667 13.8158 5.16268 13.705 5.50535Z" fill="#222222"/>
<ellipse cx="18.654" cy="7" rx="3.13727" ry="3" fill="#222222"/>
</svg>
