<svg width="213" height="56" viewBox="0 0 213 56" fill="none" xmlns="http://www.w3.org/2000/svg">
<path d="M71.0456 34V13.28H84.9336V16.584H74.8536V21.848H83.6736V25.068H74.8536V30.696H85.0736V34H71.0456ZM88.7917 34V13.28H96.2397C97.9197 13.28 99.3851 13.5787 100.636 14.176C101.905 14.7547 102.96 15.5387 103.8 16.528C104.64 17.5173 105.265 18.628 105.676 19.86C106.105 21.092 106.32 22.352 106.32 23.64C106.32 24.928 106.105 26.188 105.676 27.42C105.265 28.652 104.64 29.7627 103.8 30.752C102.96 31.7413 101.905 32.5347 100.636 33.132C99.3851 33.7107 97.9197 34 96.2397 34H88.7917ZM96.0717 16.612H92.5997V30.64H96.0717C97.5277 30.64 98.7317 30.304 99.6837 29.632C100.636 28.9413 101.345 28.064 101.812 27C102.278 25.9173 102.512 24.788 102.512 23.612C102.512 22.4547 102.278 21.344 101.812 20.28C101.345 19.1973 100.636 18.32 99.6837 17.648C98.7317 16.9573 97.5277 16.612 96.0717 16.612ZM117.832 34.28C116.302 34.28 114.911 33.9907 113.66 33.412C112.41 32.8147 111.42 31.9187 110.692 30.724C109.964 29.5293 109.6 28.0267 109.6 26.216V13.28H113.408V26.216C113.408 27.4853 113.763 28.5493 114.472 29.408C115.2 30.2667 116.32 30.696 117.832 30.696C119.363 30.696 120.492 30.2667 121.22 29.408C121.948 28.5493 122.312 27.4853 122.312 26.216V13.28H126.092V26.216C126.092 28.0267 125.728 29.5293 125 30.724C124.272 31.9187 123.283 32.8147 122.032 33.412C120.8 33.9907 119.4 34.28 117.832 34.28ZM137.611 34.28C136.323 34.28 135.222 34.1213 134.307 33.804C133.393 33.4867 132.627 33.076 132.011 32.572C131.414 32.068 130.938 31.536 130.583 30.976C130.229 30.3973 129.958 29.856 129.771 29.352C129.603 28.848 129.491 28.4373 129.435 28.12C129.379 27.8027 129.351 27.644 129.351 27.644H133.215C133.215 27.644 133.234 27.756 133.271 27.98C133.327 28.204 133.439 28.4933 133.607 28.848C133.775 29.184 134.018 29.52 134.335 29.856C134.671 30.192 135.11 30.4813 135.651 30.724C136.211 30.948 136.902 31.06 137.723 31.06C138.993 31.06 139.954 30.78 140.607 30.22C141.279 29.6413 141.615 28.932 141.615 28.092C141.615 27.3827 141.363 26.8227 140.859 26.412C140.355 25.9827 139.609 25.6653 138.619 25.46L135.875 24.872C134.811 24.648 133.813 24.312 132.879 23.864C131.965 23.416 131.227 22.8093 130.667 22.044C130.107 21.2787 129.827 20.2987 129.827 19.104C129.827 17.8533 130.135 16.7707 130.751 15.856C131.386 14.9413 132.254 14.2413 133.355 13.756C134.457 13.252 135.745 13 137.219 13C138.619 13 139.777 13.2053 140.691 13.616C141.606 14.0267 142.334 14.5307 142.875 15.128C143.435 15.7253 143.846 16.3227 144.107 16.92C144.369 17.5173 144.537 18.0213 144.611 18.432C144.705 18.8427 144.751 19.048 144.751 19.048H141.027C141.027 19.048 140.99 18.908 140.915 18.628C140.841 18.3293 140.673 17.9933 140.411 17.62C140.15 17.2467 139.758 16.92 139.235 16.64C138.713 16.3413 138.013 16.192 137.135 16.192C135.885 16.192 134.97 16.472 134.391 17.032C133.831 17.592 133.551 18.1987 133.551 18.852C133.551 19.524 133.813 20.0467 134.335 20.42C134.858 20.7933 135.558 21.0827 136.435 21.288L139.375 21.904C140.477 22.1467 141.485 22.5107 142.399 22.996C143.314 23.4813 144.042 24.1253 144.583 24.928C145.125 25.712 145.395 26.692 145.395 27.868C145.395 29.0627 145.097 30.1453 144.499 31.116C143.902 32.0867 143.025 32.8613 141.867 33.44C140.71 34 139.291 34.28 137.611 34.28ZM153.626 34V26.804L146.346 13.28H150.49L155.502 22.94L160.514 13.28H164.686L157.406 26.804V34H153.626ZM167.35 34V13.28H170.822L180.342 27.336V13.28H184.122V34H180.65L171.13 20.196V34H167.35ZM197.511 34.28C195.831 34.28 194.356 33.9813 193.087 33.384C191.836 32.768 190.782 31.956 189.923 30.948C189.083 29.9213 188.448 28.7827 188.019 27.532C187.608 26.2627 187.403 24.9653 187.403 23.64C187.403 22.3147 187.608 21.0173 188.019 19.748C188.448 18.4787 189.083 17.34 189.923 16.332C190.782 15.3053 191.836 14.4933 193.087 13.896C194.356 13.2987 195.831 13 197.511 13C198.911 13 200.115 13.1773 201.123 13.532C202.131 13.8867 202.971 14.344 203.643 14.904C204.315 15.464 204.847 16.0613 205.239 16.696C205.65 17.3307 205.958 17.928 206.163 18.488C206.368 19.048 206.499 19.5053 206.555 19.86C206.63 20.2147 206.667 20.392 206.667 20.392H202.887C202.887 20.392 202.85 20.2613 202.775 20C202.719 19.7387 202.588 19.412 202.383 19.02C202.196 18.6093 201.907 18.208 201.515 17.816C201.123 17.424 200.6 17.0973 199.947 16.836C199.312 16.5747 198.519 16.444 197.567 16.444C196.522 16.444 195.607 16.6493 194.823 17.06C194.039 17.452 193.386 17.9933 192.863 18.684C192.34 19.3747 191.948 20.1493 191.687 21.008C191.444 21.8667 191.323 22.744 191.323 23.64C191.323 24.536 191.444 25.4133 191.687 26.272C191.948 27.112 192.34 27.8773 192.863 28.568C193.386 29.2587 194.039 29.8093 194.823 30.22C195.607 30.6307 196.522 30.836 197.567 30.836C198.519 30.836 199.312 30.7053 199.947 30.444C200.6 30.164 201.123 29.828 201.515 29.436C201.907 29.044 202.196 28.652 202.383 28.26C202.588 27.868 202.719 27.5413 202.775 27.28C202.85 27 202.887 26.86 202.887 26.86H206.667C206.667 26.86 206.63 27.0373 206.555 27.392C206.499 27.7467 206.368 28.2133 206.163 28.792C205.958 29.352 205.65 29.9493 205.239 30.584C204.847 31.2 204.315 31.7973 203.643 32.376C202.971 32.936 202.131 33.3933 201.123 33.748C200.115 34.1027 198.911 34.28 197.511 34.28Z" fill="white"/>
<g clip-path="url(#clip0_90_232)" filter="url(#filter0_b_90_232)">
<g opacity="0.2">
<path d="M16.4027 3.68481L13.361 3.71001C12.1011 3.72044 11.0887 4.83958 11.0997 6.20966L11.3712 39.8378C11.3822 41.2078 12.4126 42.3101 13.6725 42.2996L16.7142 42.2744C17.9741 42.264 18.9866 41.1449 18.9755 39.7748L18.704 6.14668C18.693 4.77659 17.6626 3.67438 16.4027 3.68481Z" fill="black"/>
<path d="M38.0117 3.50583L15.8325 3.68954C15.3075 3.69388 14.8857 4.16019 14.8903 4.73106L15.1851 41.2534C15.1897 41.8242 15.619 42.2835 16.144 42.2792L38.3232 42.0954C38.8482 42.0911 39.27 41.6248 39.2654 41.0539L38.9706 4.53161C38.966 3.96074 38.5367 3.50148 38.0117 3.50583Z" fill="black"/>
</g>
<g filter="url(#filter1_d_90_232)">
<path d="M16.3971 2.99571L13.3554 3.02091C12.0955 3.03134 11.0831 4.15048 11.0941 5.52056L11.3656 39.1487C11.3766 40.5187 12.407 41.621 13.6669 41.6105L16.7086 41.5853C17.9685 41.5749 18.9809 40.4558 18.9699 39.0857L18.6984 5.45758C18.6874 4.08749 17.657 2.98528 16.3971 2.99571Z" fill="white"/>
</g>
<path d="M28.8175 2.89284L28.9733 22.1876L31.4858 19.4102L34.0428 22.1457L33.887 2.85085L28.8175 2.89284Z" fill="#E9B064"/>
<g filter="url(#filter2_d_90_232)">
<path d="M38.0061 2.81673L15.8269 3.00044C15.3019 3.00478 14.8801 3.47109 14.8847 4.04196L15.1795 40.5643C15.1841 41.1351 15.6134 41.5944 16.1384 41.5901L38.3176 41.4063C38.8426 41.402 39.2644 40.9357 39.2598 40.3648L38.965 3.84251C38.9604 3.27164 38.5311 2.81238 38.0061 2.81673Z" fill="white"/>
</g>
<path d="M14.6357 36.0893C13.5122 36.0986 12.616 37.0281 12.6252 38.1734C12.6345 39.3187 13.5455 40.2332 14.6691 40.2239L39.257 40.0203L39.2236 35.8857L14.6357 36.0893Z" fill="#DEDDDA"/>
<path opacity="0.2" d="M14.6357 36.0893C13.5122 36.0986 12.616 37.0281 12.6252 38.1734C12.6262 38.2913 12.6385 38.4055 12.6578 38.5177C12.8102 37.5372 13.6337 36.7868 14.6413 36.7784L39.2291 36.5748L39.2236 35.8857L14.6357 36.0893Z" fill="black"/>
<path opacity="0.1" d="M13.3554 3.02091C12.0912 3.03138 11.083 4.14594 11.0941 5.52029L11.0997 6.20939C11.0886 4.83504 12.0967 3.72048 13.361 3.71001L38.0116 3.50583C38.5382 3.50147 38.9658 3.95896 38.9705 4.53161L38.9649 3.84251C38.9603 3.26986 38.5326 2.81237 38.006 2.81673L13.3554 3.02091Z" fill="white"/>
<path opacity="0.1" d="M31.3467 2.18274C30.9956 2.18565 30.7155 2.49533 30.7186 2.87709L30.7241 3.56619C30.7211 3.18443 31.0012 2.87475 31.3523 2.87184L33.887 2.85084C34.2381 2.84794 34.5232 3.15293 34.5263 3.5347L34.5207 2.8456C34.5176 2.46383 34.2325 2.15884 33.8815 2.16174L31.3467 2.18274Z" fill="white"/>
<path d="M22.0366 27.1696C23.8401 27.6162 25.9584 26.3685 26.9211 25.9739C27.8838 25.5793 30.591 24.825 30.9889 23.8796C31.4232 22.8479 30.5864 20.5347 30.2841 19.1882C29.0229 20.0229 20.9994 25.9346 22.0366 27.1696Z" fill="black" fill-opacity="0.294118"/>
<path d="M21.8857 15.9717C21.5294 16.1262 21.3073 16.4561 21.3201 16.8117L21.3549 17.7887C21.3541 17.7907 21.3532 17.7926 21.3524 17.7945L21.6764 26.4394C21.6879 26.7373 21.8632 27.0097 22.1438 27.1657C22.4244 27.3217 22.7735 27.3408 23.0747 27.2167L23.9494 26.8582C24.3161 26.7063 24.5458 26.3699 24.5307 26.0069L24.4749 24.5501L29.0678 24.6596C29.2188 24.6637 29.369 24.6365 29.507 24.5802L30.4701 24.1854C30.7733 24.0615 30.9884 23.8092 31.0431 23.5133C31.0978 23.2174 30.9848 22.9173 30.7422 22.7139L30.3939 22.4209L23.7758 16.7964L22.99 16.1272C22.6939 15.8748 22.2554 15.8131 21.8857 15.9717Z" fill="#383E49"/>
<path d="M22.3097 16.7796L22.3444 17.7566L22.6684 26.4015L23.5431 26.043L23.4537 23.6326L23.6464 23.635L29.1007 23.765L30.0638 23.3703L29.7155 23.0772L23.0954 17.4488L22.3097 16.7796ZM23.2689 18.7042L25.243 20.3804L23.3184 20.063L23.2689 18.7042ZM23.3496 20.8835L24.9214 21.1443L23.4246 22.8592L23.3496 20.8835ZM26.0914 21.1005L28.2593 22.9415L24.5603 22.8534L26.0777 21.1157L26.0914 21.1005Z" fill="url(#paint0_linear_90_232)"/>
<path d="M22.9557 14.649L22.3452 15.395C23.0799 15.3452 23.7943 15.7057 24.1147 16.3485C24.4602 17.0417 24.2268 17.8282 23.6002 18.2858L24.666 18.3867C25.1791 17.7105 25.3048 16.8187 24.9083 16.0232C24.5362 15.2767 23.7889 14.7872 22.9557 14.649ZM20.1115 15.8805C19.7225 16.5249 19.6587 17.3158 20.0143 18.0292C20.395 18.7931 21.1671 19.2914 22.0259 19.4151L22.6074 18.651C21.8624 18.7113 21.1318 18.3538 20.8079 17.7039C20.5024 17.0909 20.6471 16.4017 21.12 15.9331L20.1115 15.8805Z" fill="#1D8FE4"/>
<path d="M24.2174 13.0923L23.6784 13.7553C24.6489 14.0473 25.4845 14.689 25.9389 15.6007C26.4201 16.5661 26.3712 17.6224 25.9011 18.5077L26.8055 18.591C27.2653 17.5564 27.2812 16.3628 26.7381 15.2732C26.223 14.2399 25.3009 13.4837 24.2174 13.0923ZM17.9974 15.7673C17.6594 16.7278 17.6945 17.7962 18.1845 18.7792C18.7157 19.845 19.6833 20.6143 20.8145 20.9929L21.3326 20.3146C20.3249 20.0358 19.4504 19.3881 18.9836 18.4516C18.5514 17.5845 18.5504 16.6421 18.898 15.8163L17.9974 15.7673Z" fill="#1D8FE4"/>
<path d="M25.3987 11.6403L24.8767 12.2844C26.0996 12.7851 27.1346 13.6715 27.7302 14.8665C28.3574 16.1249 28.3784 17.488 27.9143 18.6981L28.7996 18.7832C29.2695 17.4315 29.2148 15.9276 28.5238 14.5412C27.8657 13.2208 26.7393 12.2275 25.3987 11.6403ZM16.0104 15.6557C15.6713 16.9054 15.773 18.2554 16.3989 19.5111C17.0807 20.879 18.2718 21.8974 19.6807 22.4732L20.1841 21.8188C18.8991 21.331 17.8095 20.4236 17.1925 19.1858C16.6258 18.0489 16.5551 16.8263 16.892 15.7066L16.0104 15.6557Z" fill="#1D8FE4"/>
</g>
<g filter="url(#filter3_d_90_232)">
<path fill-rule="evenodd" clip-rule="evenodd" d="M45.7947 7.58551C43.1226 7.54547 42.7161 7.72679 38.862 9.33504L38.8615 12.4972C44.025 11.2767 45.1204 11.7593 46.5015 14.4661C47.7693 17.0043 47.0531 20.4598 44.3549 24.8896C41.5999 29.3766 37.6493 33.4752 32.5024 37.2417C27.3559 41.0083 22.5401 43.3581 17.9994 44.2356C13.4019 45.1134 10.4976 44.2828 9.17344 41.745C8.19453 39.8276 9.7177 36.4792 11.2861 33.0747L11.2853 29.9375C6.83561 35.9066 3.03931 42.2933 4.5937 45.2821C5.97608 47.9894 9.44714 48.6462 15.0077 47.2534C20.5108 45.8046 26.5145 42.7113 32.9051 37.9751C39.3527 33.2951 44.3783 28.3413 47.9232 23.0569C51.4688 17.773 52.5786 13.8056 51.197 11.1552C50.2759 9.40729 48.5787 7.56798 45.7947 7.58551Z" fill="white"/>
</g>
<defs>
<filter id="filter0_b_90_232" x="0.714966" y="-4.00003" width="48.9124" height="52.4383" filterUnits="userSpaceOnUse" color-interpolation-filters="sRGB">
<feFlood flood-opacity="0" result="BackgroundImageFix"/>
<feGaussianBlur in="BackgroundImageFix" stdDeviation="2"/>
<feComposite in2="SourceAlpha" operator="in" result="effect1_backgroundBlur_90_232"/>
<feBlend mode="normal" in="SourceGraphic" in2="effect1_backgroundBlur_90_232" result="shape"/>
</filter>
<filter id="filter1_d_90_232" x="9.09399" y="0.995638" width="15.876" height="46.615" filterUnits="userSpaceOnUse" color-interpolation-filters="sRGB">
<feFlood flood-opacity="0" result="BackgroundImageFix"/>
<feColorMatrix in="SourceAlpha" type="matrix" values="0 0 0 0 0 0 0 0 0 0 0 0 0 0 0 0 0 0 127 0" result="hardAlpha"/>
<feOffset dx="2" dy="2"/>
<feGaussianBlur stdDeviation="2"/>
<feComposite in2="hardAlpha" operator="out"/>
<feColorMatrix type="matrix" values="0 0 0 0 0 0 0 0 0 0 0 0 0 0 0 0 0 0 0.25 0"/>
<feBlend mode="normal" in2="BackgroundImageFix" result="effect1_dropShadow_90_232"/>
<feBlend mode="normal" in="SourceGraphic" in2="effect1_dropShadow_90_232" result="shape"/>
</filter>
<filter id="filter2_d_90_232" x="12.8846" y="0.816698" width="32.3752" height="46.7734" filterUnits="userSpaceOnUse" color-interpolation-filters="sRGB">
<feFlood flood-opacity="0" result="BackgroundImageFix"/>
<feColorMatrix in="SourceAlpha" type="matrix" values="0 0 0 0 0 0 0 0 0 0 0 0 0 0 0 0 0 0 127 0" result="hardAlpha"/>
<feOffset dx="2" dy="2"/>
<feGaussianBlur stdDeviation="2"/>
<feComposite in2="hardAlpha" operator="out"/>
<feColorMatrix type="matrix" values="0 0 0 0 0 0 0 0 0 0 0 0 0 0 0 0 0 0 0.25 0"/>
<feBlend mode="normal" in2="BackgroundImageFix" result="effect1_dropShadow_90_232"/>
<feBlend mode="normal" in="SourceGraphic" in2="effect1_dropShadow_90_232" result="shape"/>
</filter>
<filter id="filter3_d_90_232" x="0.239014" y="7.58074" width="55.5338" height="48.3825" filterUnits="userSpaceOnUse" color-interpolation-filters="sRGB">
<feFlood flood-opacity="0" result="BackgroundImageFix"/>
<feColorMatrix in="SourceAlpha" type="matrix" values="0 0 0 0 0 0 0 0 0 0 0 0 0 0 0 0 0 0 127 0" result="hardAlpha"/>
<feOffset dy="4"/>
<feGaussianBlur stdDeviation="2"/>
<feComposite in2="hardAlpha" operator="out"/>
<feColorMatrix type="matrix" values="0 0 0 0 0 0 0 0 0 0 0 0 0 0 0 0 0 0 0.25 0"/>
<feBlend mode="normal" in2="BackgroundImageFix" result="effect1_dropShadow_90_232"/>
<feBlend mode="normal" in="SourceGraphic" in2="effect1_dropShadow_90_232" result="shape"/>
</filter>
<linearGradient id="paint0_linear_90_232" x1="24.7462" y1="24.6496" x2="23.0405" y2="17.4836" gradientUnits="userSpaceOnUse">
<stop stop-color="#C2C2C2"/>
<stop offset="1" stop-color="white"/>
</linearGradient>
<clipPath id="clip0_90_232">
<rect width="40.5577" height="44.1039" fill="white" transform="matrix(0.999966 -0.00828254 0.00807186 0.999967 4.71497 0.335888)"/>
</clipPath>
</defs>
</svg>
